<svg width="73" height="27" viewBox="0 0 73 27" fill="none" xmlns="http://www.w3.org/2000/svg">
<path d="M13.125 5.15625C13.2292 5.28125 13.3333 5.63542 13.4375 6.21875C13.5417 6.80208 13.6146 7.4375 13.6562 8.125C13.7188 8.8125 13.7396 9.45833 13.7188 10.0625C13.7188 10.6667 13.6667 11.0625 13.5625 11.25C13.4792 11.375 13.2708 11.6042 12.9375 11.9375C12.6042 12.25 12.2188 12.6042 11.7812 13C11.3438 13.3958 10.8854 13.7917 10.4062 14.1875C9.94792 14.5625 9.54167 14.8854 9.1875 15.1562C9.35417 15.4896 9.5625 15.9271 9.8125 16.4688C10.0625 16.9896 10.3333 17.5521 10.625 18.1562C10.9167 18.7396 11.1979 19.3438 11.4688 19.9688C11.7604 20.5938 12.0208 21.1667 12.25 21.6875C12.4792 22.1875 12.6667 22.6146 12.8125 22.9688C12.9583 23.3021 13.0312 23.5 13.0312 23.5625C13.0312 23.6667 12.9792 23.8125 12.875 24C12.7917 24.1875 12.6771 24.3646 12.5312 24.5312C12.3854 24.6771 12.2292 24.8021 12.0625 24.9062C11.8958 25.0104 11.7396 25.0312 11.5938 24.9688C11.5104 24.9479 11.3542 24.7812 11.125 24.4688C10.8958 24.1354 10.6146 23.7292 10.2812 23.25C9.96875 22.75 9.61458 22.1875 9.21875 21.5625C8.84375 20.9375 8.45833 20.3125 8.0625 19.6875C7.66667 19.0417 7.29167 18.4271 6.9375 17.8438C6.58333 17.2396 6.27083 16.7083 6 16.25C5.95833 18.4167 5.90625 20.0833 5.84375 21.25C5.80208 22.4167 5.77083 23.2708 5.75 23.8125C5.70833 24.4583 5.66667 24.8229 5.625 24.9062C5.5625 24.9062 5.42708 24.8229 5.21875 24.6562C5.01042 24.4688 4.79167 24.25 4.5625 24C4.33333 23.75 4.11458 23.5 3.90625 23.25C3.71875 23 3.60417 22.8125 3.5625 22.6875C3.52083 22.4167 3.45833 21.6354 3.375 20.3438C3.33333 19.7812 3.29167 19.0833 3.25 18.25C3.20833 17.4167 3.15625 16.4062 3.09375 15.2188C3.05208 14.0312 2.98958 12.6354 2.90625 11.0312C2.82292 9.42708 2.73958 7.58333 2.65625 5.5C2.28125 5.47917 1.97917 5.47917 1.75 5.5C1.52083 5.5 1.34375 5.51042 1.21875 5.53125C1.09375 5.55208 1 5.5625 0.9375 5.5625C0.875 5.54167 0.822917 5.48958 0.78125 5.40625C0.697917 5.23958 0.635417 4.95833 0.59375 4.5625C0.552083 4.14583 0.53125 3.75 0.53125 3.375C0.53125 2.95833 0.59375 2.54167 0.71875 2.125C0.822917 1.70833 0.958333 1.44792 1.125 1.34375C1.20833 1.28125 1.5 1.29167 2 1.375C2.5 1.4375 3.05208 1.52083 3.65625 1.625C4.26042 1.72917 4.83333 1.84375 5.375 1.96875C5.9375 2.09375 6.30208 2.17708 6.46875 2.21875C6.61458 2.26042 6.85417 2.33333 7.1875 2.4375C7.52083 2.52083 7.90625 2.64583 8.34375 2.8125C8.78125 2.95833 9.23958 3.125 9.71875 3.3125C10.2188 3.5 10.6875 3.69792 11.125 3.90625C11.5625 4.11458 11.9583 4.32292 12.3125 4.53125C12.6667 4.73958 12.9375 4.94792 13.125 5.15625ZM6.09375 13.9688C6.28125 13.8646 6.53125 13.6667 6.84375 13.375C7.15625 13.0625 7.48958 12.7188 7.84375 12.3438C8.21875 11.9479 8.59375 11.5417 8.96875 11.125C9.34375 10.6875 9.67708 10.2812 9.96875 9.90625C10.2812 9.53125 10.5312 9.20833 10.7188 8.9375C10.9062 8.66667 11 8.48958 11 8.40625C11 8.26042 10.8646 8.09375 10.5938 7.90625C10.3438 7.69792 10.0104 7.48958 9.59375 7.28125C9.17708 7.07292 8.6875 6.875 8.125 6.6875C7.5625 6.47917 6.98958 6.30208 6.40625 6.15625L6.09375 13.9688ZM24.3125 0.9375C24.375 1.02083 24.4479 1.44792 24.5312 2.21875C24.6354 2.96875 24.7396 3.90625 24.8438 5.03125C24.9688 6.15625 25.0938 7.38542 25.2188 8.71875C25.3438 10.0312 25.4583 11.3021 25.5625 12.5312C25.6667 13.7396 25.7604 14.8229 25.8438 15.7812C25.9271 16.7188 25.9896 17.375 26.0312 17.75C26.0938 18.3125 26.1875 19 26.3125 19.8125C26.4583 20.625 26.5938 21.4271 26.7188 22.2188C26.8646 22.9896 26.9792 23.6667 27.0625 24.25C27.1458 24.8333 27.1562 25.1771 27.0938 25.2812C27.0312 25.3854 26.8229 25.375 26.4688 25.25C26.1146 25.125 25.7292 24.9479 25.3125 24.7188C24.8958 24.4896 24.5 24.2396 24.125 23.9688C23.7708 23.6979 23.5417 23.4688 23.4375 23.2812C23.3333 23.0729 23.2188 22.7292 23.0938 22.25C22.9688 21.75 22.8333 21.0938 22.6875 20.2812C22.4167 20.7812 22.1146 21.2917 21.7812 21.8125C21.4479 22.3333 21.125 22.8125 20.8125 23.25C20.5 23.6875 20.2083 24.0521 19.9375 24.3438C19.6875 24.6146 19.5 24.7396 19.375 24.7188C19.1667 24.6979 18.8438 24.4271 18.4062 23.9062C17.9896 23.3646 17.5625 22.7604 17.125 22.0938C16.6875 21.4062 16.2917 20.7604 15.9375 20.1562C15.6042 19.5312 15.4167 19.1146 15.375 18.9062C15.3542 18.7812 15.3438 18.5 15.3438 18.0625C15.3438 17.6042 15.3438 17.0625 15.3438 16.4375C15.3646 15.8125 15.3854 15.1354 15.4062 14.4062C15.4479 13.6562 15.4792 12.9271 15.5 12.2188C15.5417 11.4896 15.5729 10.8021 15.5938 10.1562C15.6354 9.51042 15.6771 8.97917 15.7188 8.5625C15.7604 7.91667 15.8125 7.25 15.875 6.5625C15.9583 5.85417 16.0312 5.19792 16.0938 4.59375C16.1771 3.98958 16.25 3.47917 16.3125 3.0625C16.3958 2.625 16.4688 2.35417 16.5312 2.25C16.5729 2.16667 16.6979 2.11458 16.9062 2.09375C17.1354 2.07292 17.3854 2.09375 17.6562 2.15625C17.9271 2.19792 18.1771 2.28125 18.4062 2.40625C18.6354 2.51042 18.7917 2.64583 18.875 2.8125C18.9167 2.91667 18.9375 3.33333 18.9375 4.0625C18.9583 4.77083 18.9688 5.625 18.9688 6.625C18.9688 7.625 18.9583 8.70833 18.9375 9.875C18.9375 11.0208 18.9271 12.1042 18.9062 13.125C18.8854 14.1458 18.8646 15.0208 18.8438 15.75C18.8438 16.4583 18.8438 16.875 18.8438 17C18.8438 17.2292 19 17.5938 19.3125 18.0938C19.6458 18.5729 19.9479 19.1562 20.2188 19.8438L22.1875 17.625C22.1667 17.0417 22.1458 16.2917 22.125 15.375C22.125 14.4583 22.1146 13.4896 22.0938 12.4688C22.0729 11.4271 22.0521 10.3854 22.0312 9.34375C22.0312 8.28125 22.0312 7.3125 22.0312 6.4375C22.0312 5.5625 22.0312 4.84375 22.0312 4.28125C22.0521 3.69792 22.0729 3.36458 22.0938 3.28125C22.1562 3.11458 22.2812 2.875 22.4688 2.5625C22.6771 2.22917 22.8958 1.92708 23.125 1.65625C23.3542 1.36458 23.5833 1.13542 23.8125 0.96875C24.0417 0.802083 24.2083 0.791667 24.3125 0.9375ZM39.1875 6.09375C39.2083 6.40625 39.1667 6.875 39.0625 7.5C38.9792 8.125 38.8333 8.75 38.625 9.375C38.4167 10 38.1458 10.5521 37.8125 11.0312C37.5 11.4896 37.1354 11.7188 36.7188 11.7188C36.5104 11.7188 36.3333 11.5938 36.1875 11.3438C36.0417 11.0938 35.9167 10.7708 35.8125 10.375C35.7083 9.97917 35.625 9.54167 35.5625 9.0625C35.5 8.5625 35.4375 8.08333 35.375 7.625C35.3333 7.16667 35.2917 6.75 35.25 6.375C35.2292 5.97917 35.2083 5.6875 35.1875 5.5C35.1042 5.375 34.9479 5.25 34.7188 5.125C34.5104 4.97917 34.3229 4.90625 34.1562 4.90625C33.9688 4.90625 33.7396 5.08333 33.4688 5.4375C33.2188 5.79167 32.9792 6.20833 32.75 6.6875C32.5208 7.16667 32.3333 7.64583 32.1875 8.125C32.0417 8.58333 31.9792 8.9375 32 9.1875C32 9.35417 32.1562 9.64583 32.4688 10.0625C32.8021 10.4792 33.2083 10.9688 33.6875 11.5312C34.1667 12.0938 34.6875 12.7083 35.25 13.375C35.8125 14.0208 36.3333 14.6667 36.8125 15.3125C37.2917 15.9583 37.6979 16.5729 38.0312 17.1562C38.3646 17.7396 38.5417 18.2396 38.5625 18.6562C38.6042 19.1562 38.4896 19.8021 38.2188 20.5938C37.9688 21.3646 37.6458 22.1146 37.25 22.8438C36.8542 23.5729 36.4271 24.2083 35.9688 24.75C35.5312 25.2708 35.1354 25.5417 34.7812 25.5625C34.5521 25.5833 34.25 25.4792 33.875 25.25C33.5 25.0417 33.0938 24.7604 32.6562 24.4062C32.2188 24.0521 31.7708 23.6667 31.3125 23.25C30.875 22.8125 30.4583 22.3854 30.0625 21.9688C29.6875 21.5521 29.3646 21.1771 29.0938 20.8438C28.8438 20.4896 28.6979 20.2292 28.6562 20.0625C28.5729 19.8125 28.5208 19.4792 28.5 19.0625C28.5 18.625 28.5208 18.2083 28.5625 17.8125C28.625 17.3958 28.6979 17.0417 28.7812 16.75C28.8854 16.4375 29.0104 16.2812 29.1562 16.2812C29.2604 16.2812 29.4271 16.4167 29.6562 16.6875C29.9062 16.9583 30.1875 17.3021 30.5 17.7188C30.8125 18.1354 31.1458 18.5938 31.5 19.0938C31.875 19.5729 32.2292 20.0208 32.5625 20.4375C32.8958 20.8542 33.1979 21.2083 33.4688 21.5C33.7396 21.7708 33.9583 21.8958 34.125 21.875C34.25 21.875 34.3854 21.7812 34.5312 21.5938C34.6771 21.3854 34.8125 21.1458 34.9375 20.875C35.0625 20.5833 35.1667 20.2917 35.25 20C35.3333 19.7083 35.375 19.4792 35.375 19.3125C35.3542 19.0625 35.1458 18.7083 34.75 18.25C34.375 17.7708 33.8958 17.2396 33.3125 16.6562C32.75 16.0521 32.1354 15.4271 31.4688 14.7812C30.8229 14.1354 30.2083 13.5208 29.625 12.9375C29.0625 12.3333 28.5833 11.7917 28.1875 11.3125C27.8125 10.8333 27.6146 10.4688 27.5938 10.2188C27.5729 9.96875 27.6458 9.58333 27.8125 9.0625C27.9792 8.52083 28.1979 7.91667 28.4688 7.25C28.7604 6.58333 29.0833 5.90625 29.4375 5.21875C29.7917 4.53125 30.1562 3.89583 30.5312 3.3125C30.9062 2.72917 31.2708 2.26042 31.625 1.90625C31.9792 1.53125 32.2917 1.34375 32.5625 1.34375C32.9167 1.34375 33.3229 1.42708 33.7812 1.59375C34.2396 1.73958 34.7083 1.94792 35.1875 2.21875C35.6875 2.46875 36.1667 2.76042 36.625 3.09375C37.1042 3.42708 37.5312 3.77083 37.9062 4.125C38.2812 4.45833 38.5833 4.80208 38.8125 5.15625C39.0417 5.48958 39.1667 5.80208 39.1875 6.09375ZM46.9688 25.9688C46.9271 25.8646 46.9062 25.4896 46.9062 24.8438C46.9062 24.1979 46.9062 23.3854 46.9062 22.4062C46.9271 21.4271 46.9479 20.3333 46.9688 19.125C47.0104 17.8958 47.0417 16.6562 47.0625 15.4062C47.1042 14.1354 47.1458 12.9062 47.1875 11.7188C47.2292 10.5104 47.2604 9.4375 47.2812 8.5C47.3229 7.5625 47.3542 6.80208 47.375 6.21875C47.3958 5.61458 47.4167 5.29167 47.4375 5.25C47.4583 5.16667 47.5521 4.95833 47.7188 4.625C47.8854 4.29167 48.0729 3.94792 48.2812 3.59375C48.5104 3.21875 48.7396 2.89583 48.9688 2.625C49.1979 2.33333 49.3958 2.19792 49.5625 2.21875C49.625 2.23958 49.6771 2.65625 49.7188 3.46875C49.7812 4.26042 49.8333 5.28125 49.875 6.53125C49.9375 7.78125 49.9792 9.16667 50 10.6875C50.0417 12.1875 50.0729 13.6562 50.0938 15.0938C50.1354 16.5104 50.1667 17.8021 50.1875 18.9688C50.2083 20.1146 50.2292 20.9583 50.25 21.5C50.9167 21.5625 51.5833 21.6146 52.25 21.6562C52.9375 21.6979 53.5521 21.75 54.0938 21.8125C54.6354 21.8542 55.0729 21.8958 55.4062 21.9375C55.7604 21.9792 55.9479 22.0104 55.9688 22.0312C56.0312 22.1146 56.1146 22.3125 56.2188 22.625C56.3438 22.9167 56.4583 23.2396 56.5625 23.5938C56.6667 23.9271 56.7396 24.2396 56.7812 24.5312C56.8438 24.8229 56.8333 25 56.75 25.0625C54.3542 25.5 52.5 25.7917 51.1875 25.9375C49.875 26.0833 48.9062 26.1562 48.2812 26.1562C47.5521 26.1562 47.1146 26.0938 46.9688 25.9688ZM59.9688 11.5625C60.0104 11.6667 60.0312 12 60.0312 12.5625C60.0521 13.1042 60.0521 13.7708 60.0312 14.5625C60.0312 15.3333 60.0104 16.1667 59.9688 17.0625C59.9271 17.9375 59.875 18.7708 59.8125 19.5625C59.7708 20.3333 59.7188 21 59.6562 21.5625C59.5938 22.1042 59.5312 22.4271 59.4688 22.5312C59.2812 22.8229 59 23.0104 58.625 23.0938C58.25 23.1562 57.9792 23.1667 57.8125 23.125C57.7292 23.125 57.6354 22.8854 57.5312 22.4062C57.4479 21.9271 57.3646 21.3229 57.2812 20.5938C57.1979 19.8646 57.125 19.0729 57.0625 18.2188C57 17.3646 56.9479 16.5521 56.9062 15.7812C56.8646 14.9896 56.8438 14.3021 56.8438 13.7188C56.8438 13.1354 56.8646 12.7604 56.9062 12.5938C56.9688 12.3229 57.1458 12.0833 57.4375 11.875C57.75 11.6667 58.0729 11.5104 58.4062 11.4062C58.7604 11.3021 59.0833 11.2604 59.375 11.2812C59.6875 11.2812 59.8854 11.375 59.9688 11.5625ZM60.125 6.5C60.2083 6.66667 60.2396 6.89583 60.2188 7.1875C60.2188 7.47917 60.1875 7.78125 60.125 8.09375C60.0625 8.40625 59.9792 8.70833 59.875 9C59.7708 9.29167 59.6667 9.52083 59.5625 9.6875C59.3542 9.97917 59.0417 10.1667 58.625 10.25C58.2292 10.3125 57.9375 10.3229 57.75 10.2812C57.6042 10.2604 57.4583 10.1667 57.3125 10C57.1667 9.8125 57.0417 9.59375 56.9375 9.34375C56.8333 9.07292 56.7604 8.78125 56.7188 8.46875C56.6771 8.15625 56.6875 7.86458 56.75 7.59375C56.8125 7.32292 57.0104 7.08333 57.3438 6.875C57.6771 6.64583 58.0312 6.47917 58.4062 6.375C58.7812 6.25 59.1354 6.19792 59.4688 6.21875C59.8021 6.21875 60.0208 6.3125 60.125 6.5ZM72.3438 1.9375C72.4062 2.04167 72.4375 2.28125 72.4375 2.65625C72.4583 3.03125 72.4479 3.4375 72.4062 3.875C72.3646 4.3125 72.3021 4.73958 72.2188 5.15625C72.1562 5.55208 72.0833 5.8125 72 5.9375C71.9375 6.04167 71.5521 6.08333 70.8438 6.0625C70.1562 6.02083 69.1667 5.91667 67.875 5.75C67.875 6.5625 67.8646 7.60417 67.8438 8.875C67.8229 10.1458 67.7812 11.5104 67.7188 12.9688C67.6771 14.4062 67.625 15.8542 67.5625 17.3125C67.5208 18.7708 67.4688 20.0938 67.4062 21.2812C67.3438 22.4688 67.2812 23.4375 67.2188 24.1875C67.1562 24.9375 67.1042 25.3333 67.0625 25.375C66.9792 25.4375 66.8333 25.4062 66.625 25.2812C66.4375 25.1771 66.2396 25.0208 66.0312 24.8125C65.8229 24.6042 65.625 24.3958 65.4375 24.1875C65.2708 23.9583 65.1562 23.7604 65.0938 23.5938C65.0729 23.5104 65.0312 23.1042 64.9688 22.375C64.9271 21.6458 64.875 20.7292 64.8125 19.625C64.75 18.5208 64.6771 17.2917 64.5938 15.9375C64.5104 14.5833 64.4271 13.2396 64.3438 11.9062C64.2604 10.5729 64.1667 9.32292 64.0625 8.15625C63.9792 6.98958 63.9062 6.02083 63.8438 5.25C62.4271 5.10417 61.4062 4.95833 60.7812 4.8125C60.1562 4.66667 59.8021 4.55208 59.7188 4.46875C59.6354 4.38542 59.5521 4.22917 59.4688 4C59.3646 3.75 59.2812 3.5 59.2188 3.25C59.1562 3 59.125 2.77083 59.125 2.5625C59.1042 2.33333 59.125 2.1875 59.1875 2.125C59.2292 2.08333 59.5833 2.04167 60.25 2C60.8958 1.95833 61.6979 1.91667 62.6562 1.875C63.6146 1.83333 64.6458 1.80208 65.75 1.78125C66.875 1.76042 67.9167 1.75 68.875 1.75C69.8333 1.75 70.6354 1.77083 71.2812 1.8125C71.9479 1.83333 72.3021 1.875 72.3438 1.9375Z" fill="#B80303"/>
</svg>
